# xmcd CD database file
#
# Track frame offsets:
#	150
#	26690
#	41700
#	59736
#	73028
#	90198
#	111471
#	132988
#	155877
#	173770
#	198093
#	219906
#	241540
#	258169
#	277582
#
# Disc length: 3998 seconds
#
# Revision: 0
# Processed by: cddbd v1.4PL0 Copyright (c) Steve Scherf et al.
# Submitted via: CDex 1.50Beta7
#
DISCID=cb0f9c0f
DTITLE=Various Artist - New Age - Autumn Scenery
DYEAR=2002
DGENRE=New Age
TTITLE0=When We Meet
TTITLE1=I Just Need You
TTITLE2=Stone Cold Man
TTITLE3=Impossible Dream
TTITLE4=Honey
TTITLE5=Morning Has Broken
TTITLE6=Reflection Of Live
TTITLE7=San Francisco
TTITLE8=Whatever Will Be, Will Be
TTITLE9=Greatest Love Of All
TTITLE10=How Can I Tell Her
TTITLE11=More Than I Can Say
TTITLE12=Do You Feel Lonesome Tonight
TTITLE13=My Fairy Boy
TTITLE14=Epitome Of Mine
EXTD=YEAR: 2002
EXTT0=
EXTT1=
EXTT2=
EXTT3=
EXTT4=
EXTT5=
EXTT6=
EXTT7=
EXTT8=
EXTT9=
EXTT10=
EXTT11=
EXTT12=
EXTT13=
EXTT14=
PLAYORDER=
